<svg width="674" height="214" viewBox="0 0 674 214" fill="none" xmlns="http://www.w3.org/2000/svg">
<g filter="url(#filter0_d)">
<path d="M104 37.9091H77V0.272724H20.5455V37.9091H0.5V78.8182H20.5455V149.795C20.1364 182.727 40.4886 199.398 79.4546 197.25C92.2386 196.534 101.75 193.875 106.864 192.341L98.6818 152.659C96.5341 153.17 91.0114 154.295 87.6364 154.295C80.2727 154.295 77 151.023 77 144.477V78.8182H104V37.9091ZM228.901 126.273C229.003 141.818 220.003 151.227 205.991 151.227C191.776 151.227 183.594 141.818 183.491 126.273V37.9091H127.037V138.136C127.139 172.5 148.821 197.045 181.855 197.045C205.276 197.045 223.276 185.182 230.128 165.136H231.764V195H285.355V37.9091H228.901V126.273ZM370.523 106.636C370.625 91.0909 379.42 81.6818 393.432 81.6818C407.648 81.6818 416.034 91.0909 415.932 106.636V195H472.386V94.7727C472.489 60.6136 450.909 35.8636 417.568 35.8636C394.455 35.8636 376.148 47.9318 369.295 67.7727H367.659V37.9091H314.068V195H370.523V106.636ZM575.938 197.864C627.074 197.864 657.347 165.136 657.347 116.864C657.347 68.5909 627.074 35.8636 575.938 35.8636C524.801 35.8636 494.528 68.5909 494.528 116.864C494.528 165.136 524.801 197.864 575.938 197.864ZM576.347 156.136C561.21 156.136 552.21 141.102 552.21 116.455C552.21 91.8068 561.21 76.7727 576.347 76.7727C590.665 76.7727 599.665 91.8068 599.665 116.455C599.665 141.102 590.665 156.136 576.347 156.136Z" fill="#FF3D00"/>
</g>
<defs>
<filter id="filter0_d" x="0.5" y="0.272724" width="672.847" height="213.591" filterUnits="userSpaceOnUse" color-interpolation-filters="sRGB">
<feFlood flood-opacity="0" result="BackgroundImageFix"/>
<feColorMatrix in="SourceAlpha" type="matrix" values="0 0 0 0 0 0 0 0 0 0 0 0 0 0 0 0 0 0 127 0" result="hardAlpha"/>
<feOffset dx="16" dy="16"/>
<feComposite in2="hardAlpha" operator="out"/>
<feColorMatrix type="matrix" values="0 0 0 0 0 0 0 0 0 0 0 0 0 0 0 0 0 0 1 0"/>
<feBlend mode="normal" in2="BackgroundImageFix" result="effect1_dropShadow"/>
<feBlend mode="normal" in="SourceGraphic" in2="effect1_dropShadow" result="shape"/>
</filter>
</defs>
</svg>
